<svg width="290" height="64" viewBox="0 0 290 64" fill="currentColor" xmlns="http://www.w3.org/2000/svg">
    <g>
        <path d="M36.2294 0.0329958C35.8052 0.0805579 34.9929 0.306481 34.491 0.52051C33.0156 1.15666 31.3251 2.66082 30.6322 3.95689C30.0528 5.03299 29.8198 6.12097 29.8258 7.72025C29.8317 10.9545 30.9308 14.8605 33.398 20.3955L33.8459 21.4063L33.5055 22.0068C33.3203 22.3397 32.6034 23.5883 31.9225 24.7832C31.2415 25.9782 30.0647 28.0412 29.306 29.3729C27.7888 32.0365 26.2238 34.7832 23.1295 40.2112C19.9575 45.77 19.1332 47.1553 18.9659 47.2029C18.8823 47.2266 17.9326 47.2444 16.8454 47.2505C11.3736 47.2683 7.3773 47.6309 5.28657 48.3028C3.14804 48.9864 1.03939 51.103 0.370357 53.2373C0.0657087 54.1885 0.00597352 54.6464 0 55.7879C0 56.8758 0.0477881 57.2801 0.280756 58.1362C1.03939 60.9484 3.5184 63.1838 6.60074 63.8258C7.29366 63.9686 8.75718 63.9686 9.49789 63.8198C11.4632 63.4394 13.0581 62.4465 14.5216 60.6927C16.26 58.6119 18.2013 55.6451 20.5967 51.4359C20.8237 51.0317 21.0328 50.6868 21.0687 50.669C21.1403 50.6274 48.9828 50.4252 49.8192 50.4609L50.3568 50.4846L51.6709 52.4465C55.8822 58.7427 58.6659 61.8639 61.1091 63.041C62.6741 63.7961 64.2392 64.1052 65.8341 63.9686C68.1996 63.7724 70.0634 62.94 71.6224 61.3705C72.3333 60.657 72.8052 60.0209 73.1815 59.2658C73.7849 58.0589 73.9939 57.1256 74 55.669C74.0058 53.386 73.3549 51.6856 71.9271 50.2528C70.2963 48.6179 68.1757 47.7915 64.4543 47.3455C62.7458 47.1434 61.7064 47.084 58.8391 47.0424C57.495 47.0245 56.1511 46.9888 55.8644 46.9709L55.3327 46.9293L54.4487 45.443C53.9588 44.6226 53.457 43.7844 53.3316 43.5703C53.2001 43.3562 52.2743 41.7926 51.2706 40.0923C49.2756 36.7035 47.1609 33.1304 43.8396 27.5002C42.6449 25.4789 41.6652 23.8142 41.6652 23.7963C41.6652 23.7845 41.1038 22.8153 40.4228 21.6441C39.7358 20.4728 39.1445 19.4562 39.1026 19.3849C39.037 19.266 39.1026 19.1233 39.718 18.0175C41.3188 15.14 42.2029 13.4039 42.9495 11.6739C44.1263 8.93903 44.4012 7.67864 44.1443 6.19825C43.8874 4.71789 43.3079 3.46938 42.4059 2.41706C41.0142 0.811831 38.3858 -0.198867 36.2294 0.0329958ZM37.6689 3.40991C38.1707 3.51693 38.9353 3.85581 39.3834 4.1828C39.8134 4.48601 40.2077 4.97948 40.4765 5.55022C40.9246 6.51335 40.9723 7.36948 40.6258 8.39206C40.0524 10.1043 38.9175 12.5359 37.5793 14.9318C37.1493 15.6929 37.0357 15.8594 36.976 15.7939C36.8565 15.6632 35.9905 14.1828 35.3632 13.0413C34.1506 10.8237 33.2188 8.62394 33.0574 7.58945C32.8723 6.40635 33.3203 5.28268 34.3536 4.34332C35.3155 3.47532 36.4445 3.15428 37.6689 3.40991ZM36.1697 26.0733C36.4384 26.5906 36.749 27.1614 36.8565 27.3397C36.9641 27.5181 37.7765 28.8974 38.6487 30.4016C39.5267 31.9056 41.032 34.474 41.9939 36.1089C42.9556 37.7439 44.2339 39.9258 44.8312 40.9543C45.4345 41.9829 46.4739 43.7605 47.143 44.8961C47.818 46.0376 48.3557 46.9769 48.3436 46.9888C48.3198 47.0067 23.0637 47.185 23.0399 47.1671C23.0219 47.1493 24.8319 43.9508 26.9107 40.3301C27.6216 39.0876 28.8042 37.0126 29.5391 35.7225C30.6202 33.8201 33.2127 29.2898 35.2497 25.7522C35.4469 25.4134 35.62 25.1399 35.644 25.1399C35.6619 25.1399 35.9009 25.562 36.1697 26.0733ZM61.9453 50.3479C64.8963 50.4549 67.4231 50.7581 68.3729 51.1148C69.0598 51.3765 69.681 51.8521 70.2246 52.5357C71.1506 53.6832 71.4672 55.1219 71.1207 56.5548C70.8818 57.5476 70.135 58.6891 69.3465 59.2658C67.9249 60.3182 65.7863 60.4965 64.3647 59.6938C63.2595 59.0636 61.9693 57.5714 59.9622 54.569C58.8988 52.9757 57.3158 50.4549 57.3158 50.3479C57.3158 50.2705 59.765 50.2705 61.9453 50.3479ZM17.1499 50.6868C17.1261 50.7403 16.7437 51.4002 16.2957 52.1553C14.2588 55.5917 13.2791 57.0067 11.6543 58.8437C10.8121 59.795 10.1968 60.223 9.28882 60.4905C8.68549 60.6688 7.52066 60.6391 6.82175 60.431C5.12528 59.9257 4.10978 58.9567 3.54826 57.3039C3.21375 56.3229 3.2496 55.0149 3.6319 54.1232C3.94252 53.4097 4.18744 53.0411 4.68921 52.5477C5.22085 52.0245 5.88988 51.6143 6.57087 51.3943C7.09654 51.2279 8.71536 50.9901 10.4596 50.8236C11.1167 50.7641 13.6196 50.6511 14.9039 50.6274C17.3411 50.5798 17.1918 50.5798 17.1499 50.6868Z"/>
        <path d="M105.237 36.8575H89.1235L85.0838 44.1551H80L95.1151 17.61L92.2555 12.2281H97.657L114.497 44.1551H109.095L105.237 36.8575ZM103.013 32.6613L97.4301 21.9886L91.4839 32.6613H103.013ZM115.632 32.7526C115.632 30.5633 116.161 28.5717 117.22 26.7777C118.28 24.9533 119.732 23.5241 121.578 22.4903C123.424 21.426 125.466 20.894 127.706 20.894C130.217 20.894 132.472 21.639 134.469 23.1288C136.496 24.5884 137.828 26.504 138.463 28.8757H133.743C133.228 27.6595 132.396 26.7017 131.246 26.0023C130.127 25.2725 128.871 24.9076 127.479 24.9076C126.056 24.9076 124.786 25.2573 123.666 25.9567C122.546 26.6256 121.669 27.5683 121.033 28.7845C120.398 29.9704 120.08 31.293 120.08 32.7526C120.08 34.2121 120.398 35.55 121.033 36.7662C121.669 37.9521 122.546 38.8947 123.666 39.5941C124.786 40.263 126.056 40.5975 127.479 40.5975C128.871 40.5975 130.127 40.2479 131.246 39.5485C132.396 38.8187 133.228 37.8456 133.743 36.6294H138.463C137.828 39.0011 136.496 40.932 134.469 42.4219C132.472 43.8814 130.217 44.6112 127.706 44.6112C125.466 44.6112 123.424 44.0942 121.578 43.0604C119.732 41.9962 118.28 40.5671 117.22 38.7731C116.161 36.9487 115.632 34.9418 115.632 32.7526ZM165.946 40.0502V44.1551H163.768C162.587 44.1551 161.665 43.8358 160.999 43.1973C160.364 42.5587 160.016 41.6618 159.955 40.5063C158.986 41.8137 157.822 42.8324 156.46 43.5621C155.099 44.2616 153.63 44.6112 152.057 44.6112C150.03 44.6112 148.183 44.1095 146.519 43.106C144.885 42.0723 143.584 40.6584 142.615 38.8643C141.678 37.0703 141.208 35.0331 141.208 32.7526C141.208 30.4721 141.693 28.4349 142.662 26.6408C143.629 24.8468 144.946 23.4481 146.61 22.4447C148.274 21.4109 150.135 20.894 152.194 20.894C153.918 20.894 155.506 21.3197 156.959 22.171C158.441 23.0224 159.667 24.1931 160.636 25.683L161.272 21.3501H165.357L163.723 32.7526V38.8187C163.723 39.2139 163.829 39.5181 164.04 39.7309C164.251 39.9437 164.54 40.0502 164.903 40.0502H165.946ZM152.648 40.5975C153.978 40.5975 155.189 40.263 156.279 39.5941C157.368 38.9252 158.215 37.9977 158.821 36.8119C159.425 35.5956 159.729 34.2424 159.729 32.7526C159.729 31.2627 159.425 29.9247 158.821 28.7389C158.215 27.5227 157.368 26.58 156.279 25.9111C155.189 25.2422 153.978 24.9076 152.648 24.9076C151.316 24.9076 150.121 25.2422 149.061 25.9111C148.001 26.58 147.169 27.5227 146.565 28.7389C145.959 29.9247 145.657 31.2627 145.657 32.7526C145.657 34.2424 145.959 35.5956 146.565 36.8119C147.169 37.9977 148.001 38.9252 149.061 39.5941C150.121 40.263 151.316 40.5975 152.648 40.5975ZM191.608 12V44.1551H187.296V40.7343C186.357 41.9505 185.223 42.9084 183.891 43.6078C182.561 44.2767 181.138 44.6112 179.625 44.6112C177.627 44.6112 175.812 44.1095 174.178 43.106C172.544 42.0723 171.258 40.6584 170.32 38.8643C169.381 37.0703 168.912 35.0331 168.912 32.7526C168.912 30.4721 169.381 28.4349 170.32 26.6408C171.258 24.8468 172.544 23.4481 174.178 22.4447C175.812 21.4109 177.627 20.894 179.625 20.894C181.199 20.894 182.666 21.2588 184.028 21.9886C185.39 22.7184 186.555 23.737 187.523 25.0445V12H191.608ZM180.351 40.5975C181.683 40.5975 182.893 40.263 183.982 39.5941C185.071 38.9252 185.92 37.9977 186.524 36.8119C187.13 35.5956 187.432 34.2424 187.432 32.7526C187.432 31.2627 187.13 29.9247 186.524 28.7389C185.92 27.5227 185.071 26.58 183.982 25.9111C182.893 25.2422 181.683 24.9076 180.351 24.9076C179.02 24.9076 177.824 25.2422 176.766 25.9111C175.706 26.58 174.874 27.5227 174.268 28.7389C173.664 29.9247 173.361 31.2627 173.361 32.7526C173.361 34.2424 173.664 35.5956 174.268 36.8119C174.874 37.9977 175.706 38.9252 176.766 39.5941C177.824 40.263 179.02 40.5975 180.351 40.5975ZM208.459 20.894C210.789 20.894 212.816 21.3957 214.541 22.3991C216.296 23.4025 217.643 24.8317 218.58 26.6864C219.519 28.5108 219.988 30.6545 219.988 33.1174C219.988 33.756 219.973 34.2273 219.942 34.5314H201.332C201.635 36.2949 202.452 37.7544 203.783 38.9099C205.145 40.0349 206.719 40.5975 208.503 40.5975C211.44 40.5975 213.528 39.5181 214.767 37.3592H219.216C218.489 39.4876 217.144 41.236 215.177 42.6043C213.209 43.9423 210.986 44.6112 208.503 44.6112C206.295 44.6112 204.298 44.1095 202.512 43.106C200.728 42.0723 199.335 40.6584 198.336 38.8643C197.337 37.0399 196.839 35.0027 196.839 32.7526C196.839 30.5024 197.337 28.4805 198.336 26.6864C199.335 24.862 200.713 23.4481 202.467 22.4447C204.253 21.4109 206.25 20.894 208.459 20.894ZM208.368 24.7252C206.582 24.7252 205.039 25.2878 203.738 26.4128C202.467 27.5378 201.68 28.9822 201.378 30.7457H215.312C215.131 28.9213 214.389 27.4618 213.089 26.3672C211.818 25.2725 210.245 24.7252 208.368 24.7252ZM253.126 20.894C254.942 20.894 256.561 21.2892 257.984 22.0798C259.436 22.8704 260.57 24.0714 261.387 25.683C262.236 27.2641 262.658 29.2102 262.658 31.5211V44.1551H258.347V31.6123C258.347 29.6055 257.771 28.0091 256.622 26.8233C255.502 25.6374 254.08 25.0445 252.355 25.0445C250.479 25.0445 248.965 25.7134 247.816 27.0513C246.666 28.3893 246.092 30.0312 246.092 31.9772V44.1551H241.779V31.6123C241.779 29.6055 241.204 28.0091 240.054 26.8233C238.935 25.6374 237.512 25.0445 235.787 25.0445C233.912 25.0445 232.398 25.7134 231.248 27.0513C230.099 28.3893 229.523 30.0312 229.523 31.9772V44.1551H225.212V21.3501H229.297V24.9533C230.114 23.7065 231.157 22.7184 232.428 21.9886C233.73 21.2588 235.107 20.894 236.559 20.894C238.344 20.894 239.948 21.2892 241.371 22.0798C242.823 22.8399 243.943 23.9802 244.73 25.5006C245.606 24.1019 246.787 22.992 248.27 22.171C249.782 21.3197 251.402 20.894 253.126 20.894ZM290 21.3501L278.969 46.7092C278.395 48.26 277.593 49.5218 276.564 50.4949C275.535 51.4983 274.022 52 272.025 52C270.603 52 269.498 51.9696 268.711 51.9088V47.8039C269.558 47.8647 270.573 47.8951 271.753 47.8951C272.6 47.8951 273.265 47.667 273.75 47.2109C274.264 46.7548 274.688 46.1316 275.021 45.3409L275.701 43.7446L264.672 21.3501H269.71L277.835 38.8643L285.461 21.3501H290Z"/>
    </g>
</svg>
