<svg width="2004" height="437" viewBox="0 0 2004 437" fill="none" xmlns="http://www.w3.org/2000/svg">
<g clip-path="url(#clip0_76_6)">
<path d="M246.262 0.225347C243.379 0.550176 237.857 2.09314 234.446 3.55487C224.417 7.89949 212.926 18.1723 208.216 27.0239C204.278 34.3732 202.694 41.8037 202.735 52.7261C202.775 74.8145 210.246 101.491 227.016 139.293L230.061 146.196L227.747 150.297C226.488 152.571 221.615 161.098 216.987 169.259C212.358 177.42 204.359 191.51 199.202 200.605C188.889 218.796 178.251 237.555 157.218 274.626C135.657 312.59 130.054 322.051 128.917 322.376C128.349 322.538 121.893 322.66 114.503 322.701C77.3096 322.823 50.1457 325.299 35.9344 329.888C21.3982 334.557 7.06506 349.012 2.51743 363.589C0.446642 370.085 0.0406038 373.212 0 381.008C0 388.438 0.32483 391.199 1.90838 397.046C7.06506 416.252 23.9156 431.519 44.8672 435.904C49.5772 436.879 59.5252 436.879 64.56 435.863C77.9187 433.265 88.7599 426.484 98.7078 414.506C110.524 400.295 123.72 380.033 140.002 351.286C141.545 348.525 142.966 346.17 143.21 346.048C143.697 345.764 332.951 344.383 338.636 344.627L342.29 344.789L351.223 358.188C379.848 401.188 398.77 422.505 415.377 430.544C426.015 435.701 436.653 437.812 447.494 436.879C463.573 435.539 476.242 429.854 486.839 419.135C491.671 414.262 494.879 409.918 497.437 404.761C501.538 396.518 502.959 390.144 503 380.196C503.04 364.604 498.615 352.991 488.91 343.206C477.825 332.04 463.411 326.396 438.115 323.35C426.502 321.97 419.437 321.564 399.947 321.28C390.811 321.158 381.676 320.914 379.727 320.792L376.113 320.508L370.104 310.357C366.774 304.754 363.363 299.029 362.511 297.567C361.617 296.105 355.324 285.426 348.502 273.814C334.941 250.67 320.567 226.267 297.991 187.815C289.87 174.01 283.211 162.641 283.211 162.519C283.211 162.438 279.395 155.819 274.766 147.82C270.096 139.821 266.077 132.878 265.792 132.391C265.346 131.579 265.792 130.604 269.975 123.052C280.856 103.4 286.866 91.5433 291.941 79.7276C299.94 61.0499 301.808 52.4419 300.062 42.3315C298.316 32.2212 294.377 23.6944 288.246 16.5075C278.786 5.54447 260.92 -1.35818 246.262 0.225347ZM256.047 23.2883C259.458 24.0192 264.655 26.3336 267.701 28.5668C270.624 30.6376 273.304 34.0078 275.131 37.9057C278.177 44.4835 278.501 50.3305 276.146 57.3143C272.248 69.0082 264.534 85.6152 255.438 101.978C252.515 107.176 251.743 108.313 251.337 107.866C250.525 106.973 244.638 96.8624 240.374 89.0665C232.132 73.9213 225.798 58.8979 224.701 51.8328C223.443 43.7527 226.488 36.0785 233.512 29.6631C240.05 23.735 247.724 21.5424 256.047 23.2883ZM245.856 178.07C247.683 181.603 249.794 185.501 250.525 186.719C251.256 187.937 256.778 197.357 262.707 207.63C268.675 217.902 278.907 235.443 285.445 246.609C291.982 257.775 300.671 272.677 304.731 279.701C308.832 286.726 315.897 298.866 320.445 306.622C325.033 314.418 328.688 320.833 328.606 320.914C328.444 321.036 156.771 322.254 156.609 322.132C156.487 322.01 168.79 300.166 182.92 275.438C187.752 266.952 195.791 252.781 200.786 243.97C208.135 230.977 225.757 200.037 239.603 175.877C240.943 173.563 242.12 171.695 242.283 171.695C242.405 171.695 244.029 174.578 245.856 178.07ZM421.061 343.855C441.12 344.586 458.295 346.657 464.751 349.093C469.42 350.88 473.643 354.128 477.338 358.797C483.632 366.634 485.784 376.46 483.429 386.246C481.805 393.026 476.729 400.822 471.369 404.761C461.706 411.948 447.169 413.166 437.506 407.684C429.994 403.38 421.224 393.189 407.581 372.684C400.353 361.802 389.593 344.586 389.593 343.855C389.593 343.327 406.241 343.327 421.061 343.855ZM116.573 346.17C116.411 346.535 113.812 351.042 110.767 356.199C96.9212 379.668 90.2622 389.332 79.218 401.878C73.4929 408.375 69.3107 411.298 63.1389 413.125C59.0379 414.343 51.1202 414.14 46.3695 412.719C34.8381 409.268 27.9354 402.65 24.1186 391.362C21.8448 384.662 22.0885 375.729 24.6871 369.639C26.7985 364.766 28.4633 362.249 31.874 358.879C35.4877 355.306 40.0353 352.504 44.6642 351.002C48.2373 349.865 59.2409 348.241 71.0972 347.104C75.5636 346.698 92.5766 345.926 101.306 345.764C117.873 345.439 116.858 345.439 116.573 346.17Z" fill="black"/>
<path d="M757.58 265.2H649.305L622.16 314H588L689.565 136.49L670.35 100.5H706.645L819.8 314H783.505L757.58 265.2ZM742.635 237.14L705.12 165.77L665.165 237.14H742.635ZM827.425 237.75C827.425 223.11 830.983 209.792 838.1 197.795C845.217 185.595 854.977 176.038 867.38 169.125C879.783 162.008 893.508 158.45 908.555 158.45C925.432 158.45 940.58 163.432 954 173.395C967.623 183.155 976.57 195.965 980.84 211.825H949.12C945.663 203.692 940.072 197.287 932.345 192.61C924.822 187.73 916.383 185.29 907.03 185.29C897.473 185.29 888.933 187.628 881.41 192.305C873.887 196.778 867.99 203.082 863.72 211.215C859.45 219.145 857.315 227.99 857.315 237.75C857.315 247.51 859.45 256.457 863.72 264.59C867.99 272.52 873.887 278.823 881.41 283.5C888.933 287.973 897.473 290.21 907.03 290.21C916.383 290.21 924.822 287.872 932.345 283.195C940.072 278.315 945.663 271.808 949.12 263.675H980.84C976.57 279.535 967.623 292.447 954 302.41C940.58 312.17 925.432 317.05 908.555 317.05C893.508 317.05 879.783 313.593 867.38 306.68C854.977 299.563 845.217 290.007 838.1 278.01C830.983 265.81 827.425 252.39 827.425 237.75ZM1165.51 286.55V314H1150.87C1142.94 314 1136.74 311.865 1132.27 307.595C1128 303.325 1125.66 297.327 1125.25 289.6C1118.74 298.343 1110.92 305.155 1101.77 310.035C1092.62 314.712 1082.75 317.05 1072.18 317.05C1058.56 317.05 1046.15 313.695 1034.97 306.985C1023.99 300.072 1015.25 290.617 1008.74 278.62C1002.44 266.623 999.285 253 999.285 237.75C999.285 222.5 1002.54 208.877 1009.05 196.88C1015.55 184.883 1024.4 175.53 1035.58 168.82C1046.76 161.907 1059.27 158.45 1073.1 158.45C1084.69 158.45 1095.36 161.297 1105.12 166.99C1115.08 172.683 1123.32 180.512 1129.83 190.475L1134.1 161.5H1161.55L1150.57 237.75V278.315C1150.57 280.958 1151.28 282.992 1152.7 284.415C1154.12 285.838 1156.06 286.55 1158.5 286.55H1165.51ZM1076.15 290.21C1085.09 290.21 1093.23 287.973 1100.55 283.5C1107.87 279.027 1113.56 272.825 1117.63 264.895C1121.69 256.762 1123.73 247.713 1123.73 237.75C1123.73 227.787 1121.69 218.84 1117.63 210.91C1113.56 202.777 1107.87 196.473 1100.55 192C1093.23 187.527 1085.09 185.29 1076.15 185.29C1067.2 185.29 1059.17 187.527 1052.05 192C1044.93 196.473 1039.34 202.777 1035.28 210.91C1031.21 218.84 1029.18 227.787 1029.18 237.75C1029.18 247.713 1031.21 256.762 1035.28 264.895C1039.34 272.825 1044.93 279.027 1052.05 283.5C1059.17 287.973 1067.2 290.21 1076.15 290.21ZM1337.94 98.975V314H1308.97V291.125C1302.66 299.258 1295.04 305.663 1286.09 310.34C1277.15 314.813 1267.59 317.05 1257.42 317.05C1244 317.05 1231.8 313.695 1220.82 306.985C1209.84 300.072 1201.2 290.617 1194.9 278.62C1188.59 266.623 1185.44 253 1185.44 237.75C1185.44 222.5 1188.59 208.877 1194.9 196.88C1201.2 184.883 1209.84 175.53 1220.82 168.82C1231.8 161.907 1244 158.45 1257.42 158.45C1268 158.45 1277.86 160.89 1287.01 165.77C1296.16 170.65 1303.99 177.462 1310.49 186.205V98.975H1337.94ZM1262.3 290.21C1271.25 290.21 1279.38 287.973 1286.7 283.5C1294.02 279.027 1299.72 272.825 1303.78 264.895C1307.85 256.762 1309.88 247.713 1309.88 237.75C1309.88 227.787 1307.85 218.84 1303.78 210.91C1299.72 202.777 1294.02 196.473 1286.7 192C1279.38 187.527 1271.25 185.29 1262.3 185.29C1253.36 185.29 1245.32 187.527 1238.21 192C1231.09 196.473 1225.5 202.777 1221.43 210.91C1217.37 218.84 1215.33 227.787 1215.33 237.75C1215.33 247.713 1217.37 256.762 1221.43 264.895C1225.5 272.825 1231.09 279.027 1238.21 283.5C1245.32 287.973 1253.36 290.21 1262.3 290.21ZM1451.17 158.45C1466.83 158.45 1480.45 161.805 1492.04 168.515C1503.83 175.225 1512.88 184.782 1519.18 197.185C1525.49 209.385 1528.64 223.72 1528.64 240.19C1528.64 244.46 1528.54 247.612 1528.33 249.645H1403.28C1405.32 261.438 1410.81 271.198 1419.75 278.925C1428.9 286.448 1439.48 290.21 1451.47 290.21C1471.2 290.21 1485.23 282.992 1493.56 268.555H1523.45C1518.57 282.788 1509.53 294.48 1496.31 303.63C1483.09 312.577 1468.15 317.05 1451.47 317.05C1436.63 317.05 1423.21 313.695 1411.21 306.985C1399.22 300.072 1389.86 290.617 1383.15 278.62C1376.44 266.42 1373.09 252.797 1373.09 237.75C1373.09 222.703 1376.44 209.182 1383.15 197.185C1389.86 184.985 1399.12 175.53 1410.91 168.82C1422.91 161.907 1436.33 158.45 1451.17 158.45ZM1450.56 184.07C1438.56 184.07 1428.19 187.832 1419.45 195.355C1410.91 202.878 1405.62 212.537 1403.59 224.33H1497.22C1496 212.13 1491.02 202.37 1482.28 195.05C1473.74 187.73 1463.17 184.07 1450.56 184.07ZM1751.31 158.45C1763.51 158.45 1774.39 161.093 1783.95 166.38C1793.71 171.667 1801.33 179.698 1806.82 190.475C1812.52 201.048 1815.36 214.062 1815.36 229.515V314H1786.39V230.125C1786.39 216.705 1782.52 206.03 1774.8 198.1C1767.27 190.17 1757.72 186.205 1746.13 186.205C1733.52 186.205 1723.35 190.678 1715.63 199.625C1707.9 208.572 1704.04 219.552 1704.04 232.565V314H1675.06V230.125C1675.06 216.705 1671.2 206.03 1663.47 198.1C1655.95 190.17 1646.39 186.205 1634.8 186.205C1622.2 186.205 1612.03 190.678 1604.3 199.625C1596.58 208.572 1592.71 219.552 1592.71 232.565V314H1563.74V161.5H1591.19V185.595C1596.68 177.258 1603.69 170.65 1612.23 165.77C1620.98 160.89 1630.23 158.45 1639.99 158.45C1651.98 158.45 1662.76 161.093 1672.32 166.38C1682.08 171.463 1689.6 179.088 1694.89 189.255C1700.78 179.902 1708.71 172.48 1718.68 166.99C1728.84 161.297 1739.72 158.45 1751.31 158.45ZM1999.08 161.5L1924.96 331.08C1921.1 341.45 1915.71 349.888 1908.8 356.395C1901.88 363.105 1891.72 366.46 1878.3 366.46C1868.74 366.46 1861.32 366.257 1856.03 365.85V338.4C1861.72 338.807 1868.54 339.01 1876.47 339.01C1882.16 339.01 1886.63 337.485 1889.89 334.435C1893.34 331.385 1896.19 327.217 1898.43 321.93L1903 311.255L1828.89 161.5H1862.74L1917.34 278.62L1968.58 161.5H1999.08Z" fill="black"/>
</g>
<defs>
<clipPath id="clip0_76_6">
<rect width="2004" height="437" fill="white"/>
</clipPath>
</defs>
</svg>
