<svg width="201" height="201" viewBox="0 0 201 201" fill="none" xmlns="http://www.w3.org/2000/svg">
<g clip-path="url(#clip0_64_14)">
<circle cx="100" cy="100.333" r="100" fill="#F0F0F0"/>
<path d="M50.3032 64.2847C51.1713 38.7856 68.8579 20.1224 101.084 20.1224C130.815 20.1224 150.672 37.2665 150.672 61.138C150.672 77.7396 142.426 89.3498 127.669 98.1389C113.454 106.385 109.44 112.028 109.44 122.878V129.172H84.2659L84.1574 121.468C83.1808 105.409 89.4742 95.6432 104.448 86.8542C117.903 78.7161 122.46 72.8568 122.46 62.1146C122.46 50.6129 113.346 42.2578 99.6739 42.2578C85.6765 42.2578 76.6704 50.8299 75.8024 64.2847H50.3032ZM97.1782 180.17C88.3892 180.17 81.3362 173.334 81.3362 164.762C81.3362 156.19 88.3892 149.463 97.1782 149.463C105.967 149.463 112.912 156.19 112.912 164.762C112.912 173.334 105.967 180.17 97.1782 180.17Z" fill="white" fill-opacity="0.52"/>
</g>
<defs>
<clipPath id="clip0_64_14">
<rect width="201" height="201" fill="white"/>
</clipPath>
</defs>
</svg>
